<svg id="Capa_1" enable-background="new 0 0 512 512" height="512" viewBox="0 0 512 512" width="512" xmlns="http://www.w3.org/2000/svg"><g><g><path d="m236.462 194.159c0-32.7-26.603-59.303-59.302-59.303s-59.302 26.603-59.302 59.303h30.015c0-16.15 13.138-29.288 29.288-29.288s29.288 13.139 29.288 29.288c0 18.682-15.199 33.88-33.88 33.88h-172.569v30.015h172.567c35.231 0 63.895-28.663 63.895-63.895z" fill="#e1f4ff"/><path d="m353.173 111.976h30.017v30.015h-30.017z" fill="#9ffcfe"/><path d="m383.189 81.959h30.017v30.015h-30.017z" fill="#9ffcfe"/><path d="m157.078 448.539h30.017v30.015h-30.017z" fill="#faf9ff"/><path d="m187.095 418.523h30.017v30.015h-30.017z" fill="#c7f2fe"/><path d="m323.156 81.959h30.017v30.015h-30.017z" fill="#9ffcfe"/><path d="m353.173 51.943h30.017v30.015h-30.017z" fill="#9ffcfe"/><g fill="#bcddfe"><path d="m452.349 164.028h30.017v30.015h-30.017z"/><path d="m202.103 33.446h30.017v30.015h-30.017z"/></g></g><g><path d="m0 287.584v30.015h256l14.857-15.008-14.857-15.007z" fill="#9ffcfe"/><path d="m315.019 194.401c-32.7 0-59.303 26.603-59.303 59.302h30.015c0-16.149 13.139-29.288 29.288-29.288 16.15 0 29.288 13.138 29.288 29.288 0 18.682-15.199 33.88-33.88 33.88h-54.427v30.015h54.426c35.232 0 63.895-28.663 63.895-63.895 0-32.699-26.603-59.302-59.302-59.302z" fill="#7be2f6"/></g><g><path d="m0 348.96v30.015l256 .096 22.784-13.693-22.784-16.342z" fill="#7be2f6"/><path d="m452.698 255.909c-32.7 0-59.303 26.603-59.303 59.302h30.015c0-16.149 13.138-29.288 29.288-29.288 16.149 0 29.288 13.139 29.288 29.288 0 18.682-15.199 33.88-33.88 33.88l-192.106-.055v30.035l97.339.036c17.332 1.473 30.99 16.042 30.99 33.749 0 16.15-13.138 29.288-29.288 29.288s-29.288-13.138-29.288-29.288h-30.015c0 32.7 26.603 59.303 59.303 59.303s59.302-26.603 59.302-59.303c0-12.383-3.552-23.947-9.675-33.748h43.437c35.232 0 63.895-28.663 63.895-63.896 0-32.7-26.603-59.303-59.302-59.303z" fill="#35c7f5"/></g></g></svg>